<?xml version="1.0" encoding="utf-8"?>
<!-- Generator: Adobe Illustrator 26.0.0, SVG Export Plug-In . SVG Version: 6.00 Build 0)  -->
<svg version="1.1" id="Layer_1" xmlns="http://www.w3.org/2000/svg" xmlns:xlink="http://www.w3.org/1999/xlink" x="0px" y="0px"
	 viewBox="0 0 500 500" style="enable-background:new 0 0 500 500;" xml:space="preserve">
<style type="text/css">
	.st0{fill:#F7931E;}
</style>
<g id="Logo_1_1_">
	<g>
		<g>
			<g>
				<path d="M102.37,294.95v9.84h-5.44v-25.64h7.47c3.48,0,6.06,0.63,7.73,1.9c1.67,1.27,2.51,3.19,2.51,5.78
					c0,1.51-0.42,2.85-1.25,4.02c-0.83,1.18-2.01,2.1-3.53,2.76c3.86,5.76,6.37,9.49,7.54,11.17h-6.03l-6.12-9.84H102.37z
					 M102.37,290.53h1.75c1.72,0,2.99-0.29,3.81-0.86c0.82-0.57,1.23-1.47,1.23-2.7c0-1.22-0.42-2.08-1.25-2.6
					c-0.84-0.51-2.13-0.77-3.88-0.77h-1.65V290.53z"/>
				<path d="M135.05,304.79h-14.77v-25.64h14.77v4.45h-9.33v5.63h8.68v4.45h-8.68v6.61h9.33V304.79z"/>
				<path d="M155.74,304.79l-1.86-6.1h-9.35l-1.86,6.1h-5.86l9.05-25.74h6.65l9.08,25.74H155.74z M152.58,294.12
					c-1.72-5.53-2.69-8.66-2.9-9.38c-0.22-0.72-0.37-1.3-0.46-1.72c-0.39,1.5-1.49,5.2-3.31,11.1H152.58z"/>
				<path d="M164.46,304.79v-25.64h5.44v21.15h10.4v4.49H164.46z"/>
				<path d="M208.5,297.67c0,2.32-0.83,4.14-2.5,5.47c-1.67,1.33-3.98,2-6.95,2c-2.74,0-5.16-0.51-7.26-1.54v-5.05
					c1.73,0.77,3.19,1.32,4.39,1.63c1.2,0.32,2.29,0.47,3.29,0.47c1.19,0,2.11-0.23,2.74-0.68c0.64-0.46,0.96-1.13,0.96-2.03
					c0-0.5-0.14-0.95-0.42-1.34c-0.28-0.39-0.69-0.77-1.24-1.13c-0.54-0.36-1.65-0.94-3.32-1.74c-1.57-0.74-2.74-1.44-3.53-2.12
					c-0.78-0.68-1.41-1.47-1.88-2.37c-0.47-0.9-0.7-1.95-0.7-3.16c0-2.27,0.77-4.05,2.31-5.35c1.54-1.3,3.66-1.95,6.38-1.95
					c1.33,0,2.6,0.16,3.81,0.47c1.21,0.32,2.48,0.76,3.8,1.33l-1.75,4.23c-1.37-0.56-2.5-0.95-3.39-1.17
					c-0.89-0.22-1.77-0.33-2.64-0.33c-1.03,0-1.82,0.24-2.37,0.72c-0.55,0.48-0.82,1.1-0.82,1.88c0,0.48,0.11,0.9,0.33,1.25
					c0.22,0.36,0.58,0.7,1.06,1.03c0.49,0.33,1.63,0.93,3.45,1.8c2.4,1.15,4.04,2.29,4.93,3.45
					C208.05,294.58,208.5,295.99,208.5,297.67z"/>
				<path d="M222.68,304.79h-5.44v-21.12h-6.96v-4.52h19.36v4.52h-6.96V304.79z"/>
				<path d="M248.92,304.79l-1.86-6.1h-9.35l-1.86,6.1H230l9.05-25.74h6.65l9.08,25.74H248.92z M245.77,294.12
					c-1.72-5.53-2.69-8.66-2.9-9.38c-0.22-0.72-0.37-1.3-0.46-1.72c-0.39,1.5-1.49,5.2-3.31,11.1H245.77z"/>
				<path d="M267.54,304.79h-5.44v-21.12h-6.96v-4.52h19.36v4.52h-6.96V304.79z"/>
				<path d="M292.85,304.79h-14.77v-25.64h14.77v4.45h-9.33v5.63h8.68v4.45h-8.68v6.61h9.33V304.79z"/>
				<path d="M306.82,304.79v-25.64h5.44v21.15h10.4v4.49H306.82z"/>
				<path d="M350.02,291.93c0,4.24-1.05,7.51-3.16,9.79c-2.1,2.28-5.12,3.42-9.05,3.42c-3.93,0-6.94-1.14-9.05-3.42
					c-2.1-2.28-3.16-5.55-3.16-9.82c0-4.27,1.06-7.53,3.17-9.78c2.11-2.25,5.14-3.38,9.08-3.38c3.94,0,6.95,1.13,9.04,3.4
					C348.98,284.41,350.02,287.68,350.02,291.93z M331.31,291.93c0,2.86,0.54,5.02,1.63,6.47c1.09,1.45,2.71,2.17,4.88,2.17
					c4.34,0,6.51-2.88,6.51-8.65c0-5.78-2.16-8.66-6.47-8.66c-2.16,0-3.79,0.73-4.89,2.18
					C331.86,286.91,331.31,289.07,331.31,291.93z"/>
				<path d="M364.71,290.39h10.17v13.29c-1.65,0.54-3.2,0.92-4.66,1.13c-1.46,0.22-2.94,0.32-4.46,0.32c-3.87,0-6.82-1.14-8.87-3.41
					c-2.04-2.27-3.06-5.54-3.06-9.79c0-4.14,1.18-7.37,3.55-9.68c2.37-2.32,5.65-3.47,9.85-3.47c2.63,0,5.17,0.53,7.61,1.58
					l-1.81,4.35c-1.87-0.94-3.82-1.4-5.84-1.4c-2.35,0-4.23,0.79-5.65,2.37c-1.41,1.58-2.12,3.7-2.12,6.37
					c0,2.78,0.57,4.91,1.71,6.37c1.14,1.47,2.8,2.2,4.97,2.2c1.13,0,2.29-0.12,3.45-0.35v-5.35h-4.86V290.39z"/>
				<path d="M403.89,291.93c0,4.24-1.05,7.51-3.16,9.79c-2.1,2.28-5.12,3.42-9.05,3.42c-3.93,0-6.94-1.14-9.05-3.42
					c-2.1-2.28-3.16-5.55-3.16-9.82c0-4.27,1.05-7.53,3.17-9.78c2.11-2.25,5.14-3.38,9.08-3.38c3.94,0,6.95,1.13,9.04,3.4
					C402.85,284.41,403.89,287.68,403.89,291.93z M385.18,291.93c0,2.86,0.54,5.02,1.63,6.47c1.09,1.45,2.71,2.17,4.88,2.17
					c4.34,0,6.51-2.88,6.51-8.65c0-5.78-2.16-8.66-6.47-8.66c-2.16,0-3.79,0.73-4.89,2.18
					C385.73,286.91,385.18,289.07,385.18,291.93z"/>
			</g>
		</g>
		<g>
			<g>
				<g>
					<path d="M141.9,316.17c-1.07,0-1.92,0.36-2.54,1.07c-0.62,0.72-0.93,1.69-0.93,2.94c0,1.28,0.3,2.27,0.9,2.97
						c0.6,0.7,1.45,1.05,2.56,1.05c0.68,0,1.46-0.12,2.33-0.37v1c-0.68,0.25-1.51,0.38-2.51,0.38c-1.44,0-2.55-0.44-3.33-1.31
						c-0.78-0.87-1.17-2.12-1.17-3.72c0-1.01,0.19-1.89,0.56-2.65c0.38-0.76,0.92-1.34,1.63-1.75c0.71-0.41,1.55-0.62,2.51-0.62
						c1.03,0,1.92,0.19,2.69,0.56l-0.48,0.98C143.38,316.34,142.64,316.17,141.9,316.17z"/>
					<path d="M158.53,320.17c0,1.56-0.4,2.79-1.19,3.69c-0.79,0.9-1.89,1.34-3.3,1.34c-1.44,0-2.55-0.44-3.33-1.32
						c-0.78-0.88-1.17-2.12-1.17-3.73c0-1.59,0.39-2.83,1.18-3.7c0.78-0.88,1.9-1.31,3.34-1.31c1.4,0,2.5,0.45,3.29,1.34
						C158.14,317.37,158.53,318.6,158.53,320.17z M150.74,320.17c0,1.32,0.28,2.33,0.85,3.01s1.38,1.03,2.46,1.03
						c1.08,0,1.9-0.34,2.45-1.02c0.55-0.68,0.83-1.69,0.83-3.02c0-1.32-0.28-2.31-0.83-2.99c-0.55-0.68-1.37-1.02-2.44-1.02
						c-1.08,0-1.91,0.34-2.47,1.03C151.03,317.87,150.74,318.86,150.74,320.17z"/>
					<path d="M168.74,325.07l-3.32-8.67h-0.05c0.06,0.69,0.09,1.5,0.09,2.45v6.22h-1.05v-9.77h1.71l3.1,8.06h0.05l3.12-8.06h1.7
						v9.77h-1.14v-6.3c0-0.72,0.03-1.51,0.09-2.35H173l-3.34,8.65H168.74z"/>
					<path d="M186.67,318.14c0,0.99-0.34,1.75-1.01,2.28c-0.68,0.53-1.64,0.8-2.9,0.8h-1.15v3.84h-1.14v-9.77H183
						C185.45,315.29,186.67,316.24,186.67,318.14z M181.61,320.25h1.02c1.01,0,1.74-0.16,2.19-0.49c0.45-0.33,0.68-0.85,0.68-1.56
						c0-0.65-0.21-1.13-0.64-1.44c-0.42-0.32-1.08-0.47-1.98-0.47h-1.27V320.25z"/>
					<path d="M198.56,325.07l-1.22-3.11h-3.92l-1.2,3.11h-1.15l3.86-9.82h0.96l3.84,9.82H198.56z M196.98,320.94l-1.14-3.03
						c-0.15-0.38-0.3-0.85-0.45-1.41c-0.1,0.43-0.24,0.9-0.42,1.41l-1.15,3.03H196.98z"/>
					<path d="M212.41,325.07h-1.3l-5.34-8.2h-0.05c0.07,0.96,0.11,1.85,0.11,2.65v5.56h-1.05v-9.77h1.28l5.33,8.17h0.05
						c-0.01-0.12-0.03-0.51-0.06-1.16c-0.03-0.65-0.04-1.12-0.03-1.4v-5.61h1.06V325.07z"/>
					<path d="M221.28,320.18l2.61-4.89h1.23l-3.26,5.98v3.79h-1.15v-3.74l-3.26-6.04h1.24L221.28,320.18z"/>
					<path d="M242.93,322.47c0,0.86-0.31,1.53-0.94,2.01c-0.62,0.48-1.47,0.72-2.54,0.72c-1.16,0-2.05-0.15-2.67-0.45v-1.1
						c0.4,0.17,0.84,0.3,1.31,0.4c0.47,0.1,0.94,0.15,1.4,0.15c0.76,0,1.33-0.14,1.71-0.43c0.38-0.29,0.58-0.69,0.58-1.2
						c0-0.34-0.07-0.62-0.2-0.83c-0.14-0.22-0.36-0.42-0.68-0.6c-0.32-0.18-0.8-0.39-1.45-0.62c-0.91-0.33-1.56-0.71-1.95-1.16
						c-0.39-0.45-0.58-1.03-0.58-1.74c0-0.75,0.28-1.35,0.85-1.8c0.57-0.45,1.31-0.67,2.25-0.67c0.97,0,1.87,0.18,2.68,0.54
						l-0.35,0.99c-0.81-0.34-1.59-0.51-2.35-0.51c-0.6,0-1.07,0.13-1.41,0.39c-0.34,0.26-0.51,0.62-0.51,1.08
						c0,0.34,0.06,0.62,0.19,0.83c0.12,0.22,0.34,0.41,0.63,0.59c0.3,0.18,0.75,0.38,1.36,0.6c1.03,0.37,1.73,0.76,2.12,1.18
						C242.74,321.25,242.93,321.8,242.93,322.47z"/>
					<path d="M248.63,325.07v-9.77h1.14v8.75h4.31v1.03H248.63z"/>
					<path d="M267.92,320.17c0,1.56-0.4,2.79-1.19,3.69c-0.79,0.9-1.89,1.34-3.3,1.34c-1.44,0-2.55-0.44-3.33-1.32
						c-0.78-0.88-1.17-2.12-1.17-3.73c0-1.59,0.39-2.83,1.18-3.7c0.78-0.88,1.9-1.31,3.34-1.31c1.4,0,2.5,0.45,3.29,1.34
						C267.52,317.37,267.92,318.6,267.92,320.17z M260.13,320.17c0,1.32,0.28,2.33,0.85,3.01s1.38,1.03,2.46,1.03
						c1.08,0,1.9-0.34,2.45-1.02c0.55-0.68,0.83-1.69,0.83-3.02c0-1.32-0.27-2.31-0.83-2.99c-0.55-0.68-1.37-1.02-2.44-1.02
						c-1.08,0-1.91,0.34-2.47,1.03C260.41,317.87,260.13,318.86,260.13,320.17z"/>
					<path d="M278.09,319.95h3.32v4.75c-0.52,0.17-1.04,0.29-1.58,0.37c-0.53,0.08-1.15,0.13-1.86,0.13c-1.48,0-2.63-0.44-3.46-1.32
						c-0.82-0.88-1.24-2.11-1.24-3.7c0-1.02,0.2-1.91,0.61-2.67c0.41-0.76,1-1.35,1.76-1.75c0.77-0.4,1.66-0.61,2.69-0.61
						c1.04,0,2.01,0.19,2.92,0.58l-0.44,1c-0.88-0.37-1.73-0.56-2.55-0.56c-1.19,0-2.12,0.35-2.79,1.06c-0.67,0.71-1,1.69-1,2.95
						c0,1.32,0.32,2.32,0.97,3c0.64,0.68,1.59,1.02,2.84,1.02c0.68,0,1.34-0.08,1.99-0.23v-3.01h-2.19V319.95z"/>
					<path d="M293.6,325.07l-1.22-3.11h-3.92l-1.2,3.11h-1.15l3.86-9.82h0.96l3.84,9.82H293.6z M292.03,320.94l-1.14-3.03
						c-0.15-0.38-0.3-0.85-0.45-1.41c-0.1,0.43-0.24,0.9-0.42,1.41l-1.15,3.03H292.03z"/>
					<path d="M307.46,325.07h-1.3l-5.34-8.2h-0.05c0.07,0.96,0.11,1.85,0.11,2.65v5.56h-1.05v-9.77h1.28l5.33,8.17h0.05
						c-0.01-0.12-0.03-0.51-0.06-1.16c-0.03-0.65-0.04-1.12-0.03-1.4v-5.61h1.06V325.07z"/>
					<path d="M328.52,325.07h-1.14v-4.6h-5.15v4.6h-1.14v-9.77h1.14v4.16h5.15v-4.16h1.14V325.07z"/>
					<path d="M340.34,325.07h-5.45v-9.77h5.45v1.01h-4.31v3.15h4.05v1h-4.05v3.6h4.31V325.07z"/>
					<path d="M347.35,321v4.07h-1.14v-9.77h2.68c1.2,0,2.08,0.23,2.66,0.69c0.57,0.46,0.86,1.15,0.86,2.07
						c0,1.29-0.66,2.17-1.97,2.62l2.65,4.39h-1.34l-2.37-4.07H347.35z M347.35,320.03h1.56c0.8,0,1.39-0.16,1.77-0.48
						c0.37-0.32,0.56-0.8,0.56-1.43c0-0.65-0.19-1.11-0.57-1.4c-0.38-0.29-0.99-0.43-1.84-0.43h-1.48V320.03z"/>
					<path d="M363.82,325.07h-5.45v-9.77h5.45v1.01h-4.31v3.15h4.05v1h-4.05v3.6h4.31V325.07z"/>
				</g>
				<g>
					<rect x="96.11" y="320.57" width="32.28" height="0.98"/>
					<rect x="370.95" y="320.57" width="32.28" height="0.98"/>
				</g>
			</g>
		</g>
	</g>
	<path class="st0" d="M334.43,231.74h-6.36v-38.22l1.03,0.76c0.6,0.44,1.31,0.67,2.03,0.67c0.53,0,1.06-0.12,1.55-0.37
		c1.15-0.58,1.88-1.77,1.88-3.06v-18.79c0-1.09-0.52-2.12-1.4-2.77l-46.93-34.48c-1.21-0.89-2.86-0.89-4.06,0l-20.62,15.15
		l-9.51-6.98c-1.21-0.89-2.86-0.89-4.06,0l-9.51,6.98l-20.62-15.15c-1.2-0.89-2.85-0.89-4.06,0l-46.93,34.48
		c-0.88,0.65-1.4,1.67-1.4,2.77v18.79c0,1.29,0.73,2.48,1.88,3.06c0.49,0.25,1.02,0.37,1.55,0.37c0.72,0,1.43-0.23,2.03-0.67
		l1.03-0.76v38.22h-6.36c-1.89,0-3.43,1.53-3.43,3.43v29.79c0,1.89,1.54,3.43,3.43,3.43h168.85c1.89,0,3.43-1.54,3.43-3.43v-29.79
		C337.86,233.27,336.32,231.74,334.43,231.74z M284.19,142.49l43.5,31.96v10.28l-41.47-30.47c-1.11-0.82-2.6-0.88-3.77-0.19
		c-0.1,0.06-0.2,0.12-0.29,0.19l-7.83,5.76l-6.99-5.14L284.19,142.49z M298.97,178.11l-18.84-13.84l4.06-2.99l37.01,27.19l0,43.27
		h-27.33v-30.06l1.03,0.76c0.02,0.01,0.03,0.03,0.05,0.04c0.01,0,0.01,0.01,0.02,0.01c0.01,0.01,0.02,0.02,0.04,0.02
		c0.01,0.01,0.01,0.01,0.02,0.02c0.01,0.01,0.02,0.01,0.03,0.02c0.01,0,0.01,0.01,0.02,0.01c0.01,0.01,0.02,0.02,0.04,0.02
		c0,0,0.01,0.01,0.02,0.01c0.01,0.01,0.03,0.02,0.04,0.02c0.01,0,0.01,0.01,0.02,0.01c0.02,0.01,0.03,0.02,0.05,0.03
		c0,0,0.01,0,0.01,0.01c0.04,0.02,0.08,0.04,0.12,0.06c0,0,0,0,0.01,0c0.02,0.01,0.03,0.02,0.05,0.02c0,0,0.01,0.01,0.01,0.01
		c0.01,0.01,0.03,0.01,0.05,0.02c0,0,0.01,0,0.01,0.01c0.02,0.01,0.03,0.02,0.05,0.02c0,0,0.01,0,0.01,0
		c0.79,0.34,1.69,0.38,2.5,0.1c0,0,0,0,0,0c0.06-0.02,0.12-0.04,0.18-0.07c0,0,0.01,0,0.02-0.01c0.01,0,0.02-0.01,0.03-0.01
		l0.02-0.01c0.01,0,0.02-0.01,0.03-0.01c0.01-0.01,0.02-0.01,0.02-0.01c0.01,0,0.02-0.01,0.02-0.01c0.01,0,0.02-0.01,0.03-0.01
		c0.01,0,0.01-0.01,0.02-0.01c0.02-0.01,0.03-0.02,0.05-0.02c1.16-0.58,1.88-1.77,1.88-3.06v-18.8
		C300.37,179.78,299.85,178.75,298.97,178.11z M250,150.65l43.5,31.96v10.28l-1.03-0.76l-40.44-29.71c-0.1-0.07-0.19-0.13-0.29-0.19
		c-1.07-0.63-2.41-0.63-3.48,0c-0.1,0.06-0.2,0.12-0.29,0.19l-40.44,29.71l-1.03,0.76v-10.28L250,150.65z M261.21,193.05h-22.42
		c-1.89,0-3.43,1.54-3.43,3.43v50.14h-22.37v-50L250,169.45l37.01,27.19v50h-22.37v-50.14
		C264.64,194.59,263.11,193.05,261.21,193.05z M201.52,202.73c0.02,0.01,0.03,0.02,0.05,0.03c0.39,0.19,0.8,0.3,1.22,0.33
		c0.81,0.07,1.63-0.16,2.31-0.66l1.03-0.76v30.06H178.8v-43.27l37.01-27.19l4.06,2.99l-18.84,13.84c-0.01,0.01-0.03,0.02-0.04,0.03
		c-0.71,0.54-1.17,1.32-1.31,2.18c0,0.03-0.01,0.07-0.01,0.1l-0.01,0.1c-0.01,0.12-0.02,0.24-0.02,0.35v18.8
		C199.63,200.96,200.36,202.14,201.52,202.73z M172.3,174.45l43.5-31.96l16.85,12.38l-6.99,5.14l-7.83-5.75
		c-1.2-0.89-2.85-0.89-4.06,0l-41.47,30.46V174.45z M169.01,238.6h37.12v8.03h-37.12V238.6z M330.99,261.52H169.01v-8.03h73.21
		v-53.58h15.56v53.58h73.21V261.52z M330.99,246.63h-37.12v-8.03h37.12V246.63z"/>
</g>
</svg>
